<svg width="25" height="25" viewBox="0 0 25 25" fill="none" xmlns="http://www.w3.org/2000/svg">
<rect width="25" height="25" fill="white"/>
<path d="M6.68945 19.1968C6.68945 18.2735 7.43795 17.525 8.36127 17.525C9.28459 17.525 10.0331 18.2735 10.0331 19.1968C10.0331 20.1202 9.28459 20.8687 8.36127 20.8687C7.43795 20.8687 6.68945 20.1202 6.68945 19.1968Z" fill="#7366EF"/>
<path d="M6.68994 5.8227C6.68994 4.89938 7.43844 4.15088 8.36176 4.15088C9.28508 4.15088 10.0336 4.89938 10.0336 5.8227V15.0177C10.0336 15.941 9.28508 16.6895 8.36176 16.6895C7.43844 16.6895 6.68994 15.941 6.68994 15.0177V5.8227Z" fill="#7366EF"/>
<path fill-rule="evenodd" clip-rule="evenodd" d="M17.7552 4.57957C18.4415 5.19724 18.4971 6.25431 17.8794 6.94061L9.60394 16.1356C8.98627 16.8219 7.9292 16.8775 7.2429 16.2599C6.5566 15.6422 6.50096 14.5851 7.11863 13.8988L15.3941 4.70384C16.0118 4.01754 17.0689 3.9619 17.7552 4.57957Z" fill="#7366EF"/>
<path fill-rule="evenodd" clip-rule="evenodd" d="M13.1142 15.6741C13.7671 15.0212 14.8256 15.0212 15.4785 15.6741L17.819 18.0147C18.4719 18.6675 18.4719 19.7261 17.819 20.379C17.1661 21.0319 16.1076 21.0319 15.4547 20.379L13.1142 18.0384C12.4613 17.3855 12.4613 16.327 13.1142 15.6741Z" fill="#7366EF"/>
</svg>
